<svg width="134" height="124" viewBox="0 0 134 124" fill="none" xmlns="http://www.w3.org/2000/svg">
<path d="M66.3907 114.42L52.5862 123.703L44.0972 110.299L28.5662 114.12L27.0188 97.489L10.1941 96.7522L15.2814 81.6673L0 75.2591L10.1941 62.0155L0 48.9907L13.8173 42.3637L10.1941 26.5013L27.0188 25.4327L28.5662 9.61063L44.0972 12.9894L52.5862 0L66.3907 9.61063L80.6703 0L86.8606 12.9894L104.557 9.61063L105.742 25.4327L122.587 27.2788L118.964 42.3637L133.163 50.51L122.587 62.0155L132.288 76.4253L117.744 82.9241L122.587 98.2333L105.742 98.9084L103.641 114.241L87.9775 111.042L79.7574 123.703L66.3907 114.42ZM49.7161 97.5403L56.1704 107.731L66.5031 100.783L76.3904 107.65L82.2576 98.6125L93.5738 100.924L95.3015 88.3166L107.003 87.8477L103.588 77.0519L115.269 71.8327L107.979 61.0054L115.219 53.1299L105.614 47.6193L108.217 36.7796L94.6556 35.2934L93.7281 22.9063L79.9336 25.5401L75.7918 16.849L66.2726 23.2557L55.9144 16.0444L49.7285 25.5098L39.0825 23.1938L37.8526 35.7701L24.5645 36.614L27.2334 48.2987L17.6568 52.8918L24.7556 61.9618L17.9953 70.7444L29.6783 75.6437L26.0393 86.4341L37.8786 86.9526L39.1066 100.151L49.7161 97.5403ZM46.4753 58.7721L58.6682 69.6759L87.607 44.4689L96.0827 52.9306L58.5559 85.6181L37.8811 67.1293L46.4753 58.7721Z" fill="#FF53E1"/>
</svg>
