<svg width="150" height="144" viewBox="0 0 150 144" fill="none" xmlns="http://www.w3.org/2000/svg">
<path d="M112.113 128.45C110.569 128.436 109.031 128.238 107.535 127.861C103.737 126.946 99.5167 124.998 94.635 121.905C90.406 119.225 86.0266 117.445 81.6232 116.609C81.4263 116.576 81.2382 116.504 81.0697 116.399C80.9013 116.294 80.756 116.157 80.6423 115.996C80.5286 115.836 80.4488 115.654 80.4076 115.463C80.3663 115.272 80.3644 115.074 80.4019 114.882C80.4395 114.69 80.5158 114.508 80.6264 114.345C80.7369 114.182 80.8795 114.043 81.0459 113.934C81.2122 113.826 81.399 113.751 81.5952 113.714C81.7914 113.677 81.9931 113.679 82.1887 113.719C86.9771 114.617 91.7144 116.535 96.2712 119.422C107.12 126.299 114.736 127.34 118.911 122.52C112.895 121.361 109.033 119.089 107.211 115.647C105.803 112.998 106.059 109.606 107.863 107.025C110.336 103.494 114.995 101.996 118.938 103.479C121.799 104.556 123.751 106.763 124.611 109.865C125.474 113.016 125.089 116.886 123.73 120.216C124.484 120.287 125.268 120.344 126.082 120.387C130.629 120.625 139.136 120.302 145.01 115.417C145.314 115.164 145.708 115.04 146.106 115.071C146.503 115.103 146.872 115.288 147.13 115.585C147.389 115.882 147.516 116.268 147.484 116.657C147.452 117.046 147.263 117.407 146.959 117.659C140.288 123.206 130.915 123.591 125.919 123.324C124.634 123.255 123.414 123.157 122.259 123.029C121.993 123.437 121.705 123.83 121.396 124.206C119.064 127.031 115.954 128.45 112.113 128.45ZM115.801 105.875C114.727 105.884 113.671 106.145 112.722 106.636C111.773 107.127 110.957 107.834 110.345 108.697C109.178 110.371 108.988 112.622 109.891 114.305C111.355 117.074 114.959 118.928 120.625 119.84C121.973 116.95 122.457 113.346 121.714 110.639C121.113 108.452 119.819 106.972 117.867 106.225C117.206 105.985 116.506 105.866 115.801 105.875Z" fill="#BCF6C5"/>
<path d="M25.1966 140.599C23.7272 140.603 22.2736 140.302 20.9315 139.716C17.9689 138.43 15.707 135.67 15.1686 132.684C14.1098 126.828 17.7312 124.265 17.8756 124.15C18.0366 124.038 18.2185 123.958 18.4111 123.915C18.6036 123.872 18.803 123.866 18.9978 123.898C19.1926 123.93 19.379 124 19.5465 124.102C19.7139 124.205 19.859 124.339 19.9736 124.496C20.0881 124.654 20.1698 124.832 20.2141 125.02C20.2583 125.208 20.2642 125.403 20.2314 125.594C20.1985 125.785 20.1277 125.967 20.0228 126.131C19.9179 126.295 19.7811 126.437 19.6201 126.549C19.4998 126.64 17.4154 128.255 18.1162 132.166C18.3434 133.23 18.827 134.226 19.5271 135.07C20.2271 135.915 21.1231 136.584 22.1407 137.021C24.0356 137.845 27.254 138.245 31.7657 135.476C32.1035 135.269 32.5118 135.201 32.9007 135.288C33.2897 135.375 33.6274 135.609 33.8396 135.94C34.0518 136.27 34.1211 136.669 34.0322 137.05C33.9434 137.43 33.7037 137.761 33.3658 137.968C30.1836 139.943 27.4405 140.599 25.1966 140.599Z" fill="#BCF6C5"/>
<path d="M79.2891 75.4609C79.1224 75.4604 78.9569 75.4336 78.7989 75.3815C70.1303 72.4537 69.7453 66.4304 69.7333 66.1774C69.7238 65.9697 69.7593 65.7625 69.8376 65.5692C69.9159 65.376 70.0351 65.2012 70.1875 65.0563L119.537 16.7759C119.819 16.5 120.201 16.3451 120.6 16.3451C120.999 16.3451 121.381 16.5 121.663 16.7759L129.718 24.6558C130 24.9317 130.158 25.3059 130.158 25.696C130.158 26.0861 130 26.4603 129.718 26.7362L80.3539 75.0284C80.2142 75.1655 80.0483 75.2742 79.8656 75.3484C79.6829 75.4227 79.487 75.4609 79.2891 75.4609ZM72.8464 66.6099C73.1652 67.7869 74.3744 70.4881 78.9101 72.2801L126.53 25.6975L120.598 19.8949L72.8464 66.6099Z" fill="#BCF6C5"/>
<path d="M50.1464 143.359C40.4372 143.359 30.6618 138.61 21.0819 129.235L14.6001 122.897C4.94502 113.452 0.0874076 103.809 0.162603 94.2371C0.252837 82.7878 7.46858 74.7195 10.5666 71.7829C15.5055 67.1014 25.0492 61.7313 37.0354 60.7103C47.3943 59.8275 50.9044 54.0014 53.3678 48.5931C53.8069 47.3602 58.857 34.0365 73.2193 31.4824C74.4613 31.3 75.7247 31.308 76.9641 31.506C79.7313 31.9797 81.5781 33.5275 82.1706 35.8668C82.3781 36.5318 82.9496 39.1977 79.6621 41.4222C77.7341 42.7287 73.2464 46.2185 73.1923 50.441C73.1562 53.1657 74.997 55.8787 78.6815 58.5063C78.8465 58.6182 78.987 58.7611 79.0946 58.9269C79.2023 59.0926 79.2749 59.2778 79.3082 59.4714C79.3416 59.6651 79.3349 59.8633 79.2887 60.0544C79.2426 60.2455 79.1577 60.4256 79.0393 60.5841C78.9208 60.7426 78.7711 60.8763 78.599 60.9774C78.4268 61.0784 78.2358 61.1447 78.0371 61.1724C77.8383 61.2 77.636 61.1885 77.4419 61.1384C77.2478 61.0884 77.0659 61.0008 76.9069 60.8809C72.3952 57.6589 70.1363 54.1338 70.1845 50.4056C70.2145 48.0899 71.2613 43.532 77.9506 39.0035C79.5147 37.9442 79.3643 36.979 79.3132 36.7848C79.2844 36.7263 79.2651 36.6638 79.256 36.5994C78.5342 33.6363 73.9352 34.3484 73.7397 34.3808C60.7459 36.6936 56.2372 49.4699 56.1921 49.5994C56.1777 49.6435 56.1606 49.6867 56.141 49.7289C53.1332 56.376 48.7478 62.6759 37.294 63.641C26.099 64.5973 17.2319 69.5642 12.6631 73.8956C9.83873 76.5762 3.25463 83.9236 3.17342 94.2606C3.11327 103.015 7.66108 111.948 16.7266 120.817L23.2085 127.158C32.2018 135.956 41.2553 140.417 50.1494 140.417H50.351C60.9204 140.334 68.4369 133.893 71.177 131.127C75.6015 126.675 80.6516 118.021 81.6172 107.063C82.7541 94.293 91.6121 90.4413 95.8712 88.5904C101 86.363 105.195 81.6756 105.241 81.6314C105.249 81.6193 105.259 81.6084 105.271 81.5991C105.367 81.4931 107.719 78.9155 106.014 77.2471C105.839 77.0459 105.623 76.8824 105.38 76.767C105.137 76.6515 104.873 76.5865 104.603 76.5762C103.764 76.5998 102.928 77.3207 102.678 77.5943L102.645 77.6326C100.043 80.3426 93.3837 84.1679 86.8086 79.2509C84.3031 77.3766 82.9556 75.1815 82.8022 72.7333C82.5496 68.6903 85.7499 65.5742 85.8883 65.4447C86.1761 65.1898 86.5537 65.0536 86.9419 65.0648C87.33 65.0759 87.6987 65.2336 87.9708 65.5047C88.2429 65.7758 88.3972 66.1393 88.4015 66.5192C88.4057 66.8991 88.2596 67.2659 87.9937 67.5427C87.9697 67.5663 85.6236 69.8761 85.804 72.5685C85.9063 74.1222 86.8598 75.5846 88.6344 76.9117C94.6229 81.3931 100.049 76.0289 100.434 75.6317C100.708 75.3374 102.281 73.7132 104.483 73.6367C105.406 73.6043 106.784 73.8456 108.137 75.1667C111.124 78.0886 109.039 81.9345 107.493 83.5764C107.153 83.956 102.714 88.8347 97.0893 91.2799C91.5429 93.6986 85.5273 97.1296 84.625 107.319C83.5783 119.039 78.107 128.358 73.3366 133.175C70.3288 136.209 62.0814 143.271 50.375 143.359H50.1464Z" fill="#BCF6C5"/>
<path d="M61.5731 140.517C61.3088 140.516 61.0495 140.447 60.8212 140.316C56.3997 137.812 54.2431 135.152 54.4145 132.416C54.5228 130.709 55.5515 129.079 57.3953 127.708C58.1664 127.136 58.9983 126.648 59.8767 126.251C61.4167 125.369 61.6814 124.433 61.7596 123.791C61.925 122.282 60.9836 120.146 59.1097 117.771C58.1344 116.548 57.059 115.405 55.8944 114.352L55.8432 114.305C55.8432 114.305 53.5874 112.145 50.5795 109.255C50.3136 108.979 50.1675 108.612 50.1718 108.232C50.1761 107.852 50.3304 107.488 50.6025 107.217C50.8745 106.946 51.2432 106.789 51.6314 106.777C52.0196 106.766 52.3971 106.902 52.685 107.157C55.5124 109.876 57.678 111.945 57.9216 112.18C59.2063 113.33 60.3914 114.582 61.4648 115.923C63.9072 119.001 65.0171 121.749 64.7734 124.095C64.623 125.469 63.9012 127.411 61.3174 128.838C61.2688 128.864 61.2186 128.888 61.1671 128.908C60.2346 129.303 57.5577 130.827 57.4374 132.601C57.3471 134.09 59.0917 135.926 62.3491 137.771C62.636 137.933 62.8602 138.184 62.9868 138.483C63.1135 138.783 63.1355 139.115 63.0494 139.428C62.9633 139.741 62.774 140.017 62.5109 140.214C62.2477 140.411 61.9255 140.517 61.5942 140.517H61.5731Z" fill="#BCF6C5"/>
<path d="M36.8369 94.3372C36.578 94.3373 36.3236 94.2721 36.098 94.1479C35.8725 94.0237 35.6836 93.8446 35.5495 93.628C33.5674 90.4177 33.0861 87.5194 34.1118 85.0153C35.3149 82.0728 38.5543 79.9012 43.7368 78.5271C53.431 75.9583 57.3471 69.7967 60.4963 64.8474C61.6994 62.9642 62.7251 61.3399 63.9343 60.1541C65.6427 58.4857 67.3511 58.2797 68.4881 58.3886C71.7967 58.7358 74.0826 62.102 74.3323 62.4845C74.4406 62.647 74.5149 62.8289 74.5511 63.0196C74.5873 63.2103 74.5846 63.4061 74.5431 63.5958C74.5017 63.7855 74.4223 63.9653 74.3095 64.1248C74.1968 64.2844 74.0529 64.4205 73.8861 64.5255C73.7194 64.6304 73.533 64.7021 73.3379 64.7363C73.1427 64.7705 72.9426 64.7666 72.7489 64.7249C72.5553 64.6832 72.372 64.6044 72.2096 64.4931C72.0472 64.3818 71.9089 64.2402 71.8027 64.0764C71.3275 63.3614 69.7514 61.4782 68.1602 61.3134C67.4504 61.2428 66.7646 61.54 66.0548 62.2285C65.0892 63.1731 64.1418 64.6649 63.0469 66.3922C59.8015 71.4945 55.356 78.4859 44.5188 81.3578C40.2868 82.4789 37.7212 84.0766 36.888 86.1011C36.2323 87.7047 36.6414 89.7204 38.1092 92.0979C38.2466 92.3211 38.3209 92.5759 38.3247 92.8364C38.3284 93.0968 38.2614 93.3536 38.1305 93.5805C37.9996 93.8073 37.8094 93.9961 37.5795 94.1275C37.3496 94.2589 37.0881 94.3282 36.8218 94.3283L36.8369 94.3372Z" fill="#BCF6C5"/>
<path d="M71.7846 83.5057C71.5868 83.5057 71.3909 83.4675 71.2082 83.3932C71.0255 83.319 70.8595 83.2103 70.7199 83.0732L61.7867 74.3369C61.6468 74.2003 61.5359 74.0382 61.4601 73.8596C61.3844 73.6811 61.3453 73.4897 61.3452 73.2963C61.345 73.103 61.3838 72.9116 61.4593 72.7329C61.5348 72.5543 61.6455 72.3919 61.7852 72.2551C61.9248 72.1183 62.0906 72.0098 62.2731 71.9357C62.4556 71.8616 62.6513 71.8234 62.8489 71.8232C63.0465 71.8231 63.2422 71.861 63.4248 71.9349C63.6074 72.0088 63.7734 72.1171 63.9132 72.2537L72.8464 80.9929C73.0571 81.1984 73.2007 81.4606 73.259 81.746C73.3174 82.0315 73.2878 82.3275 73.1742 82.5965C73.0605 82.8656 72.8678 83.0955 72.6204 83.2574C72.3731 83.4192 72.0822 83.5057 71.7846 83.5057Z" fill="#BCF6C5"/>
<path d="M65.6156 89.5408C65.2171 89.5399 64.8352 89.3843 64.5539 89.1082L55.6207 80.3574C55.477 80.2216 55.3624 80.0593 55.2836 79.8798C55.2048 79.7003 55.1633 79.5072 55.1616 79.3119C55.1599 79.1165 55.1979 78.9228 55.2735 78.742C55.3491 78.5612 55.4608 78.3969 55.602 78.2588C55.7432 78.1207 55.9111 78.0114 56.096 77.9374C56.2808 77.8635 56.4788 77.8262 56.6785 77.8279C56.8782 77.8296 57.0755 77.8702 57.259 77.9473C57.4425 78.0244 57.6084 78.1365 57.7472 78.277L66.6804 87.0161C66.8912 87.2219 67.0349 87.4843 67.0932 87.77C67.1514 88.0558 67.1216 88.352 67.0076 88.6211C66.8935 88.8903 66.7004 89.1203 66.4525 89.2819C66.2047 89.4435 65.9134 89.5295 65.6156 89.529V89.5408Z" fill="#BCF6C5"/>
<path d="M46.0498 112.625C45.3785 112.625 44.7138 112.496 44.0942 112.243C43.4746 111.991 42.9125 111.62 42.4404 111.153L33.0801 101.999C32.125 101.062 31.5887 99.7919 31.5887 98.4682C31.5887 97.1445 32.125 95.8748 33.0801 94.9372L37.7542 90.3616C38.7126 89.4272 40.0105 88.9026 41.3636 88.9026C42.7167 88.9026 44.0146 89.4272 44.973 90.3616L54.3303 99.5187C55.2854 100.456 55.8217 101.726 55.8217 103.05C55.8217 104.373 55.2854 105.643 54.3303 106.581L49.6531 111.156C49.1815 111.622 48.6203 111.991 48.0018 112.243C47.3832 112.495 46.7198 112.625 46.0498 112.625ZM44.5609 109.094C44.7564 109.285 44.9885 109.437 45.244 109.54C45.4995 109.644 45.7733 109.697 46.0498 109.697C46.3263 109.697 46.6001 109.644 46.8556 109.54C47.111 109.437 47.3431 109.285 47.5387 109.094L52.2158 104.518C52.4113 104.327 52.5664 104.1 52.6723 103.85C52.7781 103.6 52.8326 103.332 52.8326 103.061C52.8326 102.791 52.7781 102.523 52.6723 102.273C52.5664 102.023 52.4113 101.796 52.2158 101.605L42.8585 92.4478C42.4617 92.0651 41.9269 91.8505 41.3696 91.8505C40.8124 91.8505 40.2775 92.0651 39.8808 92.4478L35.2036 97.0264C35.0081 97.2177 34.853 97.4447 34.7471 97.6946C34.6413 97.9446 34.5869 98.2124 34.5869 98.4829C34.5869 98.7534 34.6413 99.0213 34.7471 99.2712C34.853 99.5211 35.0081 99.7482 35.2036 99.9395L44.5609 109.094Z" fill="#BCF6C5"/>
<path d="M130.855 27.7572C130.063 27.752 129.274 27.6602 128.503 27.4836C128.305 27.4462 128.117 27.3704 127.95 27.2605C127.783 27.1507 127.64 27.0091 127.529 26.8441C127.419 26.6792 127.344 26.4943 127.308 26.3003C127.272 26.1064 127.277 25.9074 127.321 25.7151C127.365 25.5229 127.449 25.3413 127.566 25.1812C127.684 25.0211 127.833 24.8857 128.005 24.7831C128.177 24.6804 128.368 24.6126 128.567 24.5837C128.766 24.5547 128.97 24.5653 129.165 24.6146C130.867 24.9913 132.26 24.8294 133.306 24.1291C135.09 22.9345 135.481 20.5098 135.484 20.4863C135.494 20.4217 135.508 20.3577 135.526 20.295L137.304 14.1717C137.336 14.0623 137.38 13.9567 137.436 13.8569C137.771 13.2031 138.274 12.6455 138.895 12.2385C139.969 11.5823 141.025 11.7147 141.798 11.8118C142.019 11.8456 142.244 11.8633 142.468 11.8648C143.177 11.8108 143.856 11.5596 144.423 11.1409C145.729 10.2052 146.529 8.41913 146.18 7.23624C145.732 5.73851 144.998 4.7822 143.936 4.31434C141.831 3.38451 139.012 4.62919 138.982 4.64096L138.922 4.66744L124.53 10.5524C124.472 10.5764 124.413 10.5961 124.352 10.6113C124.051 10.6966 121.42 11.5235 121.618 14.0305L121.973 17.7262C121.999 17.922 121.984 18.1209 121.93 18.3109C121.875 18.501 121.782 18.6784 121.656 18.8326C121.53 18.9868 121.374 19.1146 121.196 19.2084C121.019 19.3022 120.824 19.3601 120.623 19.3787C120.422 19.3973 120.219 19.3761 120.027 19.3165C119.835 19.2568 119.657 19.1599 119.503 19.0315C119.35 18.9032 119.225 18.7459 119.135 18.5692C119.045 18.3925 118.992 18.1999 118.98 18.0028L118.613 14.2894C118.312 10.3553 121.582 8.35733 123.441 7.81591L137.731 1.96623C138.167 1.77203 141.906 0.200734 145.166 1.63373C147.049 2.46351 148.361 4.07012 149.061 6.41234C149.762 8.75457 148.538 11.8383 146.195 13.5185C145.147 14.2843 143.892 14.7324 142.586 14.8073C142.193 14.819 141.801 14.7963 141.413 14.7396C140.895 14.6749 140.633 14.6513 140.483 14.7396C140.342 14.8515 140.227 14.9921 140.146 15.1516L138.444 21.0365C138.326 21.6868 137.65 24.7882 135.033 26.5567C133.801 27.3698 132.341 27.7892 130.855 27.7572Z" fill="#BCF6C5"/>
<path d="M41.2072 99.7336C40.91 99.7336 40.6195 99.6473 40.3723 99.4859C40.1251 99.3244 39.9324 99.0949 39.8185 98.8263C39.7046 98.5578 39.6745 98.2622 39.7322 97.977C39.7899 97.6918 39.9326 97.4296 40.1425 97.2237L40.356 97.0148C40.4947 96.8743 40.6607 96.7622 40.8442 96.6851C41.0277 96.608 41.225 96.5674 41.4247 96.5657C41.6244 96.564 41.8224 96.6013 42.0072 96.6752C42.1921 96.7492 42.36 96.8585 42.5012 96.9966C42.6424 97.1347 42.7541 97.299 42.8297 97.4798C42.9053 97.6606 42.9433 97.8543 42.9416 98.0497C42.9399 98.245 42.8984 98.4381 42.8196 98.6176C42.7408 98.7971 42.6262 98.9594 42.4825 99.0951L42.269 99.304C42.13 99.441 41.9646 99.5495 41.7823 99.6233C41.6 99.697 41.4045 99.7346 41.2072 99.7336Z" fill="#BCF6C5"/>
<path d="M46.3205 104.736C46.0233 104.736 45.7328 104.65 45.4856 104.488C45.2384 104.327 45.0457 104.097 44.9318 103.829C44.8179 103.56 44.7878 103.265 44.8455 102.979C44.9031 102.694 45.0459 102.432 45.2557 102.226L45.4693 102.017C45.608 101.877 45.774 101.765 45.9575 101.687C46.1409 101.61 46.3383 101.57 46.538 101.568C46.7377 101.566 46.9357 101.604 47.1205 101.678C47.3053 101.752 47.4733 101.861 47.6145 101.999C47.7557 102.137 47.8673 102.301 47.943 102.482C48.0186 102.663 48.0566 102.857 48.0549 103.052C48.0532 103.247 48.0117 103.44 47.9328 103.62C47.854 103.799 47.7395 103.962 47.5958 104.098L47.3823 104.306C47.2433 104.443 47.0778 104.552 46.8955 104.626C46.7133 104.699 46.5178 104.737 46.3205 104.736Z" fill="#BCF6C5"/>
<path d="M72.1877 103.265C71.8905 103.265 71.5999 103.178 71.3528 103.017C71.1056 102.855 70.9129 102.626 70.799 102.357C70.685 102.089 70.655 101.793 70.7127 101.508C70.7703 101.223 70.9131 100.961 71.1229 100.755L71.3365 100.546C71.4752 100.405 71.6412 100.293 71.8246 100.216C72.0081 100.139 72.2055 100.098 72.4052 100.097C72.6048 100.095 72.8029 100.132 72.9877 100.206C73.1725 100.28 73.3404 100.389 73.4817 100.528C73.6229 100.666 73.7345 100.83 73.8101 101.011C73.8858 101.192 73.9238 101.385 73.9221 101.581C73.9203 101.776 73.8789 101.969 73.8 102.149C73.7212 102.328 73.6066 102.49 73.463 102.626L73.2495 102.835C73.1105 102.972 72.945 103.081 72.7627 103.154C72.5804 103.228 72.385 103.266 72.1877 103.265Z" fill="#BCF6C5"/>
<path d="M72.1877 109.738C71.8905 109.738 71.5999 109.652 71.3528 109.49C71.1056 109.329 70.9129 109.099 70.799 108.831C70.685 108.562 70.655 108.267 70.7127 107.982C70.7703 107.696 70.9131 107.434 71.1229 107.228L71.3365 107.019C71.4752 106.879 71.6412 106.767 71.8246 106.69C72.0081 106.613 72.2055 106.572 72.4052 106.57C72.6048 106.569 72.8029 106.606 72.9877 106.68C73.1725 106.754 73.3404 106.863 73.4817 107.001C73.6229 107.139 73.7345 107.303 73.8101 107.484C73.8858 107.665 73.9238 107.859 73.9221 108.054C73.9203 108.25 73.8789 108.443 73.8 108.622C73.7212 108.802 73.6066 108.964 73.463 109.1L73.2495 109.309C73.1105 109.446 72.945 109.554 72.7627 109.628C72.5804 109.702 72.385 109.739 72.1877 109.738Z" fill="#BCF6C5"/>
<path d="M72.1877 116.506C71.8905 116.506 71.5999 116.42 71.3528 116.258C71.1056 116.097 70.9129 115.867 70.799 115.599C70.685 115.33 70.655 115.034 70.7127 114.749C70.7703 114.464 70.9131 114.202 71.1229 113.996L71.3365 113.787C71.4752 113.647 71.6412 113.534 71.8246 113.457C72.0081 113.38 72.2055 113.34 72.4052 113.338C72.6048 113.336 72.8029 113.373 72.9877 113.447C73.1725 113.521 73.3404 113.631 73.4817 113.769C73.6229 113.907 73.7345 114.071 73.8101 114.252C73.8858 114.433 73.9238 114.627 73.9221 114.822C73.9203 115.017 73.8789 115.21 73.8 115.39C73.7212 115.569 73.6066 115.732 73.463 115.867L73.2495 116.076C73.1105 116.213 72.945 116.322 72.7627 116.396C72.5804 116.469 72.385 116.507 72.1877 116.506Z" fill="#BCF6C5"/>
<path d="M7.62498 23.5437C7.22612 23.5437 6.8436 23.3887 6.56156 23.1128C6.27953 22.8369 6.12108 22.4626 6.12108 22.0724V16.2344C6.12108 15.8442 6.27953 15.47 6.56156 15.1941C6.8436 14.9182 7.22612 14.7632 7.62498 14.7632C8.02385 14.7632 8.40637 14.9182 8.68841 15.1941C8.97044 15.47 9.12889 15.8442 9.12889 16.2344V22.0724C9.12889 22.4626 8.97044 22.8369 8.68841 23.1128C8.40637 23.3887 8.02385 23.5437 7.62498 23.5437Z" fill="#BCF6C5"/>
<path d="M14.0677 27.4365C13.6689 27.4365 13.2863 27.2815 13.0043 27.0056C12.7223 26.7297 12.5638 26.3555 12.5638 25.9653V12.3415C12.5638 11.9513 12.7223 11.5771 13.0043 11.3012C13.2863 11.0252 13.6689 10.8702 14.0677 10.8702C14.4666 10.8702 14.8491 11.0252 15.1311 11.3012C15.4132 11.5771 15.5716 11.9513 15.5716 12.3415V25.9653C15.5716 26.3555 15.4132 26.7297 15.1311 27.0056C14.8491 27.2815 14.4666 27.4365 14.0677 27.4365Z" fill="#BCF6C5"/>
<path d="M20.5074 33.2773C20.1086 33.2773 19.7261 33.1223 19.444 32.8464C19.162 32.5705 19.0035 32.1963 19.0035 31.8061V6.50055C19.0035 6.11035 19.162 5.73613 19.444 5.46022C19.7261 5.1843 20.1086 5.0293 20.5074 5.0293C20.9063 5.0293 21.2888 5.1843 21.5709 5.46022C21.8529 5.73613 22.0114 6.11035 22.0114 6.50055V31.8061C22.0114 32.1963 21.8529 32.5705 21.5709 32.8464C21.2888 33.1223 20.9063 33.2773 20.5074 33.2773Z" fill="#BCF6C5"/>
<path d="M26.9502 27.8279C26.5513 27.8279 26.1688 27.6729 25.8868 27.397C25.6047 27.121 25.4463 26.7468 25.4463 26.3566V11.9384C25.4463 11.5482 25.6047 11.174 25.8868 10.8981C26.1688 10.6222 26.5513 10.4672 26.9502 10.4672C27.349 10.4672 27.7316 10.6222 28.0136 10.8981C28.2956 11.174 28.4541 11.5482 28.4541 11.9384V26.3566C28.4541 26.7468 28.2956 27.121 28.0136 27.397C27.7316 27.6729 27.349 27.8279 26.9502 27.8279Z" fill="#BCF6C5"/>
<path d="M33.3929 23.5437C32.9941 23.5437 32.6115 23.3887 32.3295 23.1128C32.0475 22.8369 31.889 22.4626 31.889 22.0724V16.2344C31.889 15.8442 32.0475 15.47 32.3295 15.1941C32.6115 14.9182 32.9941 14.7632 33.3929 14.7632C33.7918 14.7632 34.1743 14.9182 34.4563 15.1941C34.7384 15.47 34.8968 15.8442 34.8968 16.2344V22.0724C34.8968 22.4626 34.7384 22.8369 34.4563 23.1128C34.1743 23.3887 33.7918 23.5437 33.3929 23.5437Z" fill="#BCF6C5"/>
<path d="M39.8326 30.6438C39.4338 30.6438 39.0513 30.4888 38.7692 30.2129C38.4872 29.937 38.3287 29.5627 38.3287 29.1725V9.14875C38.3287 8.75855 38.4872 8.38432 38.7692 8.10841C39.0513 7.8325 39.4338 7.67749 39.8326 7.67749C40.2315 7.67749 40.614 7.8325 40.8961 8.10841C41.1781 8.38432 41.3365 8.75855 41.3365 9.14875V29.1873C41.3326 29.5749 41.1724 29.9454 40.8908 30.2181C40.6092 30.4908 40.2289 30.6438 39.8326 30.6438Z" fill="#BCF6C5"/>
<path d="M46.2754 38.2797C45.8765 38.2797 45.494 38.1247 45.212 37.8487C44.9299 37.5728 44.7715 37.1986 44.7715 36.8084V1.49835C44.7715 1.10815 44.9299 0.733933 45.212 0.458019C45.494 0.182106 45.8765 0.0270996 46.2754 0.0270996C46.6742 0.0270996 47.0568 0.182106 47.3388 0.458019C47.6208 0.733933 47.7793 1.10815 47.7793 1.49835V36.8084C47.7793 37.1986 47.6208 37.5728 47.3388 37.8487C47.0568 38.1247 46.6742 38.2797 46.2754 38.2797Z" fill="#BCF6C5"/>
<path d="M52.7181 31.2175C52.3192 31.2175 51.9367 31.0625 51.6547 30.7866C51.3726 30.5107 51.2142 30.1365 51.2142 29.7463V8.56047C51.2142 8.17027 51.3726 7.79606 51.6547 7.52015C51.9367 7.24424 52.3192 7.08923 52.7181 7.08923C53.117 7.08923 53.4995 7.24424 53.7815 7.52015C54.0636 7.79606 54.222 8.17027 54.222 8.56047V29.7463C54.222 30.1365 54.0636 30.5107 53.7815 30.7866C53.4995 31.0625 53.117 31.2175 52.7181 31.2175Z" fill="#BCF6C5"/>
<path d="M59.1578 23.5437C58.759 23.5437 58.3765 23.3887 58.0944 23.1128C57.8124 22.8369 57.6539 22.4626 57.6539 22.0724V16.2344C57.6539 15.8442 57.8124 15.47 58.0944 15.1941C58.3765 14.9182 58.759 14.7632 59.1578 14.7632C59.5567 14.7632 59.9392 14.9182 60.2213 15.1941C60.5033 15.47 60.6617 15.8442 60.6617 16.2344V22.0724C60.6617 22.4626 60.5033 22.8369 60.2213 23.1128C59.9392 23.3887 59.5567 23.5437 59.1578 23.5437Z" fill="#BCF6C5"/>
<path d="M65.6006 25.9652C65.2017 25.9652 64.8192 25.8102 64.5371 25.5343C64.2551 25.2584 64.0967 24.8842 64.0967 24.494V14.107C64.0967 13.7168 64.2551 13.3426 64.5371 13.0667C64.8192 12.7907 65.2017 12.6357 65.6006 12.6357C65.9994 12.6357 66.382 12.7907 66.664 13.0667C66.946 13.3426 67.1045 13.7168 67.1045 14.107V24.494C67.1045 24.8842 66.946 25.2584 66.664 25.5343C66.382 25.8102 65.9994 25.9652 65.6006 25.9652Z" fill="#BCF6C5"/>
<path d="M72.0433 29.1578C71.6444 29.1578 71.2619 29.0028 70.9799 28.7269C70.6978 28.451 70.5394 28.0768 70.5394 27.6866V9.73725C70.5394 9.34705 70.6978 8.97283 70.9799 8.69691C71.2619 8.421 71.6444 8.26599 72.0433 8.26599C72.4421 8.26599 72.8247 8.421 73.1067 8.69691C73.3887 8.97283 73.5472 9.34705 73.5472 9.73725V27.6866C73.5472 28.0768 73.3887 28.451 73.1067 28.7269C72.8247 29.0028 72.4421 29.1578 72.0433 29.1578Z" fill="#BCF6C5"/>
<path d="M78.483 26.3567C78.0842 26.3567 77.7016 26.2017 77.4196 25.9258C77.1376 25.6499 76.9791 25.2756 76.9791 24.8854V13.7039C76.9791 13.3137 77.1376 12.9395 77.4196 12.6636C77.7016 12.3877 78.0842 12.2327 78.483 12.2327C78.8819 12.2327 79.2644 12.3877 79.5464 12.6636C79.8285 12.9395 79.9869 13.3137 79.9869 13.7039V24.8854C79.9869 25.2756 79.8285 25.6499 79.5464 25.9258C79.2644 26.2017 78.8819 26.3567 78.483 26.3567Z" fill="#BCF6C5"/>
<path d="M84.9258 23.5437C84.5269 23.5437 84.1444 23.3887 83.8624 23.1128C83.5803 22.8369 83.4219 22.4626 83.4219 22.0724V16.2344C83.4219 15.8442 83.5803 15.47 83.8624 15.1941C84.1444 14.9182 84.5269 14.7632 84.9258 14.7632C85.3246 14.7632 85.7071 14.9182 85.9892 15.1941C86.2712 15.47 86.4297 15.8442 86.4297 16.2344V22.0724C86.4297 22.4626 86.2712 22.8369 85.9892 23.1128C85.7071 23.3887 85.3246 23.5437 84.9258 23.5437Z" fill="#BCF6C5"/>
<path d="M91.2422 22.0958C90.8433 22.0958 90.4608 21.9408 90.1788 21.6649C89.8967 21.389 89.7383 21.0148 89.7383 20.6246V17.6822C89.7383 17.292 89.8967 16.9178 90.1788 16.6418C90.4608 16.3659 90.8433 16.2109 91.2422 16.2109C91.641 16.2109 92.0236 16.3659 92.3056 16.6418C92.5876 16.9178 92.7461 17.292 92.7461 17.6822V20.6246C92.7461 21.0148 92.5876 21.389 92.3056 21.6649C92.0236 21.9408 91.641 22.0958 91.2422 22.0958Z" fill="#BCF6C5"/>
<path d="M120.917 33.8659C120.519 33.8658 120.137 33.7113 119.856 33.4363L112.676 26.4243C112.532 26.2886 112.418 26.1262 112.339 25.9467C112.26 25.7672 112.218 25.5742 112.217 25.3788C112.215 25.1835 112.253 24.9897 112.329 24.8089C112.404 24.6281 112.516 24.4638 112.657 24.3257C112.798 24.1876 112.966 24.0783 113.151 24.0043C113.336 23.9304 113.534 23.8931 113.734 23.8948C113.933 23.8965 114.131 23.9371 114.314 24.0142C114.498 24.0913 114.664 24.2034 114.802 24.3439L121.982 31.3648C122.193 31.5705 122.337 31.8329 122.395 32.1187C122.453 32.4044 122.423 32.7006 122.309 32.9698C122.195 33.239 122.002 33.4689 121.754 33.6306C121.506 33.7922 121.215 33.8782 120.917 33.8777V33.8659Z" fill="#BCF6C5"/>
<path d="M114.078 40.5688C113.88 40.5692 113.684 40.5314 113.501 40.4577C113.319 40.384 113.153 40.2758 113.013 40.1392L105.833 33.1155C105.551 32.8392 105.393 32.4647 105.393 32.0743C105.393 31.6839 105.552 31.3096 105.835 31.0337C106.117 30.7578 106.5 30.603 106.899 30.6033C107.298 30.6035 107.681 30.7589 107.963 31.0352L115.139 38.0589C115.349 38.2646 115.492 38.5265 115.549 38.8115C115.607 39.0964 115.577 39.3917 115.464 39.6602C115.35 39.9286 115.158 40.1582 114.911 40.3199C114.665 40.4816 114.374 40.5682 114.078 40.5688Z" fill="#BCF6C5"/>
<path d="M107.238 47.2631C107.04 47.263 106.844 47.2248 106.661 47.1506C106.479 47.0763 106.313 46.9676 106.173 46.8305L98.9933 39.8067C98.8497 39.671 98.7351 39.5087 98.6563 39.3292C98.5775 39.1497 98.536 38.9566 98.5342 38.7613C98.5325 38.5659 98.5706 38.3722 98.6462 38.1914C98.7218 38.0105 98.8335 37.8463 98.9747 37.7081C99.1159 37.57 99.2838 37.4608 99.4686 37.3868C99.6534 37.3128 99.8515 37.2756 100.051 37.2773C100.251 37.279 100.448 37.3196 100.632 37.3967C100.815 37.4738 100.981 37.5859 101.12 37.7264L108.299 44.7531C108.51 44.9587 108.654 45.2208 108.712 45.5063C108.77 45.7917 108.741 46.0877 108.627 46.3568C108.514 46.6258 108.321 46.8558 108.074 47.0177C107.826 47.1795 107.535 47.2659 107.238 47.266V47.2631Z" fill="#BCF6C5"/>
<path d="M100.245 54.1045C100.047 54.1045 99.8508 54.0662 99.6681 53.992C99.4854 53.9178 99.3195 53.809 99.1798 53.6719L92.0002 46.6481C91.8565 46.5124 91.7419 46.35 91.6631 46.1705C91.5843 45.991 91.5428 45.7979 91.5411 45.6026C91.5393 45.4072 91.5774 45.2135 91.653 45.0327C91.7286 44.8519 91.8403 44.6876 91.9815 44.5495C92.1227 44.4113 92.2906 44.3021 92.4755 44.2281C92.6603 44.1541 92.8583 44.1169 93.058 44.1186C93.2577 44.1203 93.455 44.1609 93.6385 44.238C93.822 44.3151 93.9879 44.4272 94.1267 44.5677L101.306 51.5916C101.517 51.7972 101.661 52.0593 101.719 52.3447C101.777 52.6302 101.748 52.9262 101.634 53.1952C101.52 53.4643 101.328 53.6943 101.08 53.8561C100.833 54.018 100.542 54.1044 100.245 54.1045Z" fill="#BCF6C5"/>
<path d="M93.4018 60.7956C93.0037 60.7956 92.6219 60.6411 92.34 60.366L85.1604 53.3422C84.8864 53.0648 84.7348 52.6931 84.7383 52.3074C84.7417 51.9216 84.8999 51.5526 85.1787 51.2798C85.4575 51.007 85.8347 50.8523 86.2291 50.8489C86.6234 50.8456 87.0033 50.9939 87.2869 51.2619L94.4666 58.2886C94.6764 58.4945 94.8192 58.7567 94.8768 59.0419C94.9345 59.3272 94.9044 59.6227 94.7905 59.8913C94.6766 60.1598 94.4839 60.3893 94.2367 60.5508C93.9895 60.7123 93.699 60.7985 93.4018 60.7986V60.7956Z" fill="#BCF6C5"/>
<path d="M86.5951 67.4543C86.1966 67.4535 85.8147 67.2979 85.5333 67.0218L78.3537 59.9982C78.0797 59.7207 77.9282 59.3491 77.9316 58.9633C77.935 58.5776 78.0932 58.2086 78.372 57.9358C78.6509 57.663 79.0281 57.5083 79.4224 57.5049C79.8167 57.5016 80.1966 57.6499 80.4802 57.9179L87.6599 64.9415C87.8707 65.1473 88.0144 65.4096 88.0727 65.6954C88.1309 65.9811 88.1011 66.2773 87.9871 66.5465C87.873 66.8156 87.6798 67.0456 87.432 67.2072C87.1842 67.3689 86.8929 67.4549 86.5951 67.4543Z" fill="#BCF6C5"/>
</svg>
