<svg width="136" height="133" viewBox="0 0 136 133" fill="none" xmlns="http://www.w3.org/2000/svg">
<path d="M78.1423 96.9486C78.1411 97.9479 78.4575 98.9251 79.0514 99.7566C79.6453 100.588 80.49 101.236 81.4787 101.62C82.4674 102.003 83.5556 102.104 84.6057 101.909C85.6557 101.715 86.6205 101.234 87.3778 100.528C88.1352 99.8217 88.6511 98.9215 88.8604 97.9415C89.0696 96.9614 88.9628 95.9454 88.5534 95.0221C88.144 94.0987 87.4505 93.3094 86.5605 92.7541C85.6705 92.1988 84.624 91.9023 83.5535 91.9023C82.1196 91.9031 80.7446 92.4348 79.7301 93.3808C78.7156 94.3269 78.1446 95.61 78.1423 96.9486ZM83.5535 96.22C83.7076 96.221 83.858 96.2647 83.9855 96.3454C84.1131 96.4261 84.2123 96.5403 84.2705 96.6735C84.3286 96.8067 84.3433 96.953 84.3125 97.094C84.2818 97.235 84.207 97.3643 84.0976 97.4657C83.9882 97.567 83.8491 97.6359 83.6979 97.6636C83.5467 97.6912 83.39 97.6765 83.2478 97.6212C83.1055 97.5659 82.9839 97.4725 82.8984 97.3528C82.8129 97.2331 82.7673 97.0925 82.7673 96.9486C82.7673 96.8524 82.7877 96.7573 82.8272 96.6685C82.8668 96.5798 82.9248 96.4992 82.9979 96.4315C83.071 96.3637 83.1577 96.3102 83.2531 96.2739C83.3484 96.2376 83.4506 96.2193 83.5535 96.22Z" fill="#24F8F5"/>
<path d="M69.3751 116.724C69.3751 117.296 69.6187 117.845 70.0524 118.25C70.4861 118.655 71.0742 118.883 71.6876 118.883H80.3594C80.9727 118.883 81.5609 118.655 81.9946 118.25C82.4283 117.845 82.6719 117.296 82.6719 116.724C82.6719 116.151 82.4283 115.602 81.9946 115.197C81.5609 114.792 80.9727 114.565 80.3594 114.565H71.6876C71.0742 114.565 70.4861 114.792 70.0524 115.197C69.6187 115.602 69.3751 116.151 69.3751 116.724Z" fill="#24F8F5"/>
<path d="M89.0313 118.883H97.7032C98.3165 118.883 98.9047 118.655 99.3384 118.25C99.772 117.845 100.016 117.296 100.016 116.724C100.016 116.151 99.772 115.602 99.3384 115.197C98.9047 114.792 98.3165 114.565 97.7032 114.565H89.0313C88.418 114.565 87.8298 114.792 87.3961 115.197C86.9624 115.602 86.7188 116.151 86.7188 116.724C86.7188 117.296 86.9624 117.845 87.3961 118.25C87.8298 118.655 88.418 118.883 89.0313 118.883Z" fill="#24F8F5"/>
<path d="M63.0156 114.565H54.3438C53.7304 114.565 53.1422 114.792 52.7086 115.197C52.2749 115.602 52.0312 116.151 52.0312 116.724C52.0312 117.296 52.2749 117.845 52.7086 118.25C53.1422 118.655 53.7304 118.883 54.3438 118.883H63.0156C63.6289 118.883 64.2171 118.655 64.6508 118.25C65.0845 117.845 65.3281 117.296 65.3281 116.724C65.3281 116.151 65.0845 115.602 64.6508 115.197C64.2171 114.792 63.6289 114.565 63.0156 114.565Z" fill="#24F8F5"/>
<path d="M28.3281 114.565H19.6562C19.0429 114.565 18.4547 114.792 18.0211 115.197C17.5874 115.602 17.3438 116.151 17.3438 116.724C17.3438 117.296 17.5874 117.845 18.0211 118.25C18.4547 118.655 19.0429 118.883 19.6562 118.883H28.3281C28.9414 118.883 29.5296 118.655 29.9633 118.25C30.397 117.845 30.6406 117.296 30.6406 116.724C30.6406 116.151 30.397 115.602 29.9633 115.197C29.5296 114.792 28.9414 114.565 28.3281 114.565Z" fill="#24F8F5"/>
<path d="M45.6719 114.565H37.0001C36.3867 114.565 35.7986 114.792 35.3649 115.197C34.9312 115.602 34.6876 116.151 34.6876 116.724C34.6876 117.296 34.9312 117.845 35.3649 118.25C35.7986 118.655 36.3867 118.883 37.0001 118.883H45.6719C46.2852 118.883 46.8734 118.655 47.3071 118.25C47.7408 117.845 47.9844 117.296 47.9844 116.724C47.9844 116.151 47.7408 115.602 47.3071 115.197C46.8734 114.792 46.2852 114.565 45.6719 114.565Z" fill="#24F8F5"/>
<path d="M106.375 118.883H115.047C115.66 118.883 116.248 118.655 116.682 118.25C117.116 117.845 117.359 117.296 117.359 116.724C117.359 116.151 117.116 115.602 116.682 115.197C116.248 114.792 115.66 114.565 115.047 114.565H106.375C105.762 114.565 105.174 114.792 104.74 115.197C104.306 115.602 104.063 116.151 104.063 116.724C104.063 117.296 104.306 117.845 104.74 118.25C105.174 118.655 105.762 118.883 106.375 118.883Z" fill="#24F8F5"/>
<path d="M84.0768 34.6956C87.7468 34.6961 91.3346 33.6806 94.3864 31.7774C97.4382 29.8742 99.8169 27.1689 101.222 24.0036C102.626 20.8383 102.994 17.3552 102.278 13.9948C101.562 10.6344 99.7951 7.54762 97.2 5.12492C94.6048 2.70222 91.2984 1.0524 87.6988 0.384107C84.0992 -0.284183 80.3682 0.0590787 76.9776 1.37048C73.5871 2.68188 70.6892 4.90252 68.6506 7.75153C66.612 10.6005 65.5241 13.95 65.5247 17.3762C65.5308 21.9678 67.4874 26.3697 70.9652 29.6165C74.4431 32.8633 79.1583 34.6898 84.0768 34.6956ZM84.0768 4.3718C86.832 4.37127 89.5255 5.13351 91.8166 6.56212C94.1077 7.99074 95.8936 10.0216 96.9484 12.3977C98.0032 14.7739 98.2794 17.3888 97.7423 19.9116C97.2051 22.4343 95.8786 24.7517 93.9306 26.5707C91.9826 28.3897 89.5005 29.6285 86.7983 30.1305C84.0961 30.6325 81.2951 30.3751 78.7496 29.3909C76.204 28.4067 74.0283 26.7399 72.4975 24.6013C70.9668 22.4627 70.1497 19.9483 70.1497 17.3762C70.1543 13.929 71.623 10.6242 74.2337 8.18638C76.8445 5.74859 80.3842 4.3768 84.0768 4.3718Z" fill="#24F8F5"/>
<path d="M84.1374 19.686C84.3959 19.6839 84.6497 19.7504 84.8692 19.8777C85.0888 20.005 85.2651 20.1879 85.3776 20.4051C85.4902 20.6223 85.5343 20.8649 85.5049 21.1047C85.4755 21.3444 85.3737 21.5714 85.2115 21.7592C85.0492 21.947 84.8332 22.088 84.5885 22.1657C84.3438 22.2433 84.0804 22.2545 83.8292 22.1979C83.5779 22.1412 83.3491 22.0192 83.1693 21.8458C82.9895 21.6725 82.8661 21.4551 82.8135 21.2188C82.76 20.9353 82.6462 20.6646 82.4789 20.4227C82.3116 20.1808 82.0942 19.9726 81.8394 19.8103C81.5846 19.648 81.2977 19.535 80.9954 19.4778C80.6931 19.4206 80.3816 19.4204 80.0793 19.4773C79.7769 19.5342 79.4898 19.647 79.2349 19.809C78.9799 19.971 78.7622 20.179 78.5947 20.4207C78.4271 20.6625 78.313 20.9331 78.2592 21.2166C78.2053 21.5001 78.2127 21.7908 78.281 22.0716C78.4752 22.9662 78.901 23.8028 79.5212 24.5084C80.1415 25.214 80.9374 25.7671 81.8394 26.1194V27.1988C81.8394 27.7714 82.083 28.3205 82.5167 28.7254C82.9504 29.1302 83.5386 29.3577 84.1519 29.3577C84.7652 29.3577 85.3534 29.1302 85.7871 28.7254C86.2207 28.3205 86.4644 27.7714 86.4644 27.1988V26.141C87.7402 25.6419 88.7917 24.7458 89.4402 23.6051C90.0886 22.4643 90.2941 21.1491 90.0217 19.883C89.7493 18.6168 89.0158 17.4777 87.9458 16.6592C86.8758 15.8406 85.5352 15.3931 84.1519 15.3926C83.8952 15.3926 83.6437 15.325 83.4263 15.1975C83.209 15.07 83.0345 14.8879 82.923 14.672C82.8116 14.4562 82.7676 14.2153 82.7961 13.9772C82.8247 13.739 82.9246 13.5132 83.0845 13.3257C83.2443 13.1382 83.4576 12.9966 83.6998 12.9172C83.9419 12.8378 84.2032 12.8237 84.4536 12.8767C84.7039 12.9296 84.9332 13.0475 85.115 13.2166C85.2969 13.3857 85.4239 13.5993 85.4816 13.8329C85.542 14.116 85.6626 14.3849 85.8363 14.6237C86.01 14.8625 86.2332 15.0664 86.4928 15.2233C86.7524 15.3801 87.043 15.4868 87.3475 15.537C87.6521 15.5872 87.9643 15.5798 88.2657 15.5154C88.5671 15.4509 88.8516 15.3307 89.1024 15.1618C89.3531 14.993 89.5651 14.7788 89.7257 14.5322C89.8863 14.2855 89.9922 14.0112 90.0373 13.7256C90.0824 13.44 90.0656 13.1489 89.988 12.8695C89.7794 12.0021 89.3503 11.1943 88.7371 10.5142C88.1238 9.83414 87.3443 9.30174 86.4644 8.96195V7.92301C86.4644 7.35045 86.2207 6.80133 85.7871 6.39647C85.3534 5.99161 84.7652 5.76416 84.1519 5.76416C83.5386 5.76416 82.9504 5.99161 82.5167 6.39647C82.083 6.80133 81.8394 7.35045 81.8394 7.92301V8.94576C80.5624 9.44371 79.5096 10.3393 78.8602 11.4802C78.2108 12.6211 78.0049 13.9368 78.2774 15.2035C78.55 16.4702 79.2843 17.6096 80.3553 18.4278C81.4263 19.246 82.7679 19.6926 84.1519 19.6914L84.1374 19.686Z" fill="#24F8F5"/>
<path d="M135.565 40.8671C135.574 36.2979 133.649 31.9103 130.208 28.6606C126.767 25.4108 122.09 23.5623 117.196 23.5178C112.302 23.4733 107.587 25.2364 104.079 28.423C100.572 31.6095 98.555 35.9612 98.4691 40.5298L76.908 40.4326L66.5017 31.7675L66.4728 31.7432C65.2325 30.7468 63.7775 30.0105 62.2061 29.5841C60.6348 29.1576 58.9837 29.051 57.3645 29.2714C55.7949 29.4797 54.2916 30.0002 52.9561 30.7977C51.6206 31.5952 50.4841 32.6511 49.6234 33.894C49.5222 34.0451 49.421 34.1989 49.3343 34.3528L44.6573 41.7765L35.7281 38.7325L35.5576 38.7001C34.0224 38.4108 32.4404 38.4138 30.9065 38.7092C29.3727 39.0046 27.9185 39.5862 26.6313 40.4191L13.4992 40.0818H13.4385C9.87814 40.0825 6.4635 41.4019 3.94404 43.7504C1.42458 46.099 0.0061253 49.2847 0 52.6085V124.555C0.00306176 126.569 0.861834 128.5 2.38788 129.923C3.91393 131.347 5.98261 132.147 8.14 132.149H114.226C116.383 132.147 118.452 131.347 119.978 129.923C121.504 128.5 122.363 126.569 122.366 124.555V107.632H123.161C124.865 107.63 126.498 106.997 127.703 105.872C128.908 104.747 129.585 103.221 129.587 101.631V92.0264C129.585 90.4358 128.908 88.9108 127.703 87.7861C126.498 86.6614 124.865 86.0289 123.161 86.0275H122.366V68.6838C122.362 67.0395 121.787 65.4406 120.728 64.127C119.668 62.8134 118.181 61.8558 116.489 61.3977L116.405 58.1783C116.608 58.1783 116.813 58.1945 117.018 58.1945C121.937 58.1874 126.652 56.3591 130.129 53.1107C133.606 49.8624 135.561 45.4592 135.565 40.8671ZM98.9605 44.8502C99.72 47.816 101.302 50.5431 103.548 52.7576C105.793 54.972 108.624 56.5958 111.754 57.4659L111.85 61.0739L101.718 61.0469L82.1313 44.7827L98.9605 44.8502ZM53.2887 36.5332L53.4881 36.2283C53.9858 35.4994 54.6474 34.8805 55.4272 34.4145C56.2069 33.9485 57.086 33.6465 58.0033 33.5297C58.9648 33.399 59.9452 33.4619 60.8785 33.7142C61.8118 33.9665 62.6765 34.4023 63.4145 34.9923L90.2482 57.2986L84.756 55.4285L64.4002 38.29C64.1748 38.1 63.9114 37.9533 63.6252 37.8584C63.3391 37.7634 63.0356 37.722 62.7323 37.7366C62.429 37.7511 62.1317 37.8213 61.8574 37.9431C61.5832 38.0649 61.3373 38.2359 61.1338 38.4465C60.9572 38.6315 60.8155 38.8432 60.7147 39.0725C60.5472 39.3502 60.3141 39.5886 60.0331 39.7696C59.7521 39.9505 59.4306 40.0693 59.0931 40.1169C58.7929 40.1362 58.4919 40.0944 58.2109 39.9942C57.9298 39.894 57.6755 39.7379 57.4656 39.5367C57.1362 39.2549 56.7413 39.0482 56.3119 38.9329C55.8825 38.8175 55.4303 38.7967 54.9908 38.872C54.5514 38.9473 54.1366 39.1167 53.7791 39.3669C53.4215 39.6171 53.131 39.9412 52.9302 40.3139L51.0166 43.938L49.0857 43.2796L53.2887 36.5332ZM73.1588 51.4913L55.3613 45.4276L56.1851 43.8814C57.3055 44.3658 58.5508 44.5417 59.7746 44.3882C60.9984 44.2348 62.1499 43.7584 63.0937 43.0151L73.1588 51.4913ZM26.3596 48.0587C26.7245 46.3789 27.778 44.8986 29.2955 43.9337C30.8129 42.9687 32.6742 42.5955 34.4823 42.8937L82.7297 59.3549H82.7499L87.664 61.0253L80.5299 61.0064L80.3998 60.9525L40.9573 47.2546C40.6726 47.1556 40.3698 47.11 40.0662 47.1203C39.7626 47.1307 39.4642 47.1967 39.188 47.3148C38.9117 47.4328 38.6631 47.6005 38.4564 47.8082C38.2496 48.016 38.0887 48.2598 37.9828 48.5256C37.9143 48.6996 37.8697 48.8809 37.8498 49.0653C37.7256 49.5268 37.1098 51.3726 35.1038 52.0661C34.5039 52.2588 33.867 52.3298 33.2354 52.2744C32.6039 52.2191 31.9922 52.0386 31.4413 51.745C31.0039 51.5294 30.5187 51.4121 30.0242 51.4023C29.5297 51.3925 29.0396 51.4905 28.5928 51.6886C28.146 51.8866 27.7549 52.1793 27.4505 52.5432C27.1462 52.9072 26.9369 53.3324 26.8395 53.7851L25.2901 60.8526H23.5788L26.3596 48.0587ZM67.1695 60.974L30.0191 60.8742L31.0251 56.2543C32.8827 56.8011 34.882 56.7584 36.7109 56.1328C38.8072 55.3884 40.5292 53.9387 41.5383 52.0688L67.1695 60.974ZM13.4038 44.4076L22.7492 44.6478C22.3262 45.4627 22.0144 46.324 21.8213 47.2114L18.8729 60.8337H13.4356C11.1305 60.7988 8.93223 59.9204 7.31386 58.3876C5.69548 56.8548 4.78639 54.7902 4.78223 52.6379C4.77806 50.4857 5.67915 48.418 7.29158 46.8797C8.904 45.3415 11.0989 44.4557 13.4038 44.413V44.4076ZM123.155 90.3452C123.633 90.3452 124.091 90.5223 124.428 90.8376C124.766 91.1529 124.956 91.5805 124.956 92.0264V101.631C124.956 102.077 124.766 102.505 124.429 102.82C124.091 103.136 123.633 103.314 123.155 103.314H82.0099C80.3026 103.312 78.6658 102.678 77.4585 101.551C76.2512 100.424 75.5719 98.896 75.5696 97.3021V96.3549C75.5719 94.7612 76.2513 93.2334 77.4586 92.1068C78.666 90.9801 80.3028 90.3466 82.0099 90.3452H123.155ZM117.735 68.6838V86.0275H82.0099C79.0767 86.0303 76.2644 87.1192 74.19 89.0553C72.1156 90.9914 70.9484 93.6165 70.9446 96.3549V97.3021C70.9484 100.041 72.1155 102.666 74.1898 104.603C76.2641 106.539 79.0764 107.629 82.0099 107.632H117.735V124.555C117.734 125.424 117.363 126.257 116.704 126.872C116.045 127.486 115.151 127.831 114.22 127.831H8.13422C7.20298 127.831 6.3098 127.486 5.65078 126.872C4.99176 126.257 4.62075 125.424 4.61922 124.555V118.888H10.9786C11.5919 118.888 12.1801 118.66 12.6138 118.256C13.0475 117.851 13.2911 117.302 13.2911 116.729C13.2911 116.156 13.0475 115.607 12.6138 115.202C12.1801 114.798 11.5919 114.57 10.9786 114.57H4.61922V62.0535C7.06105 64.046 10.1954 65.1422 13.4385 65.1379L27.1777 65.1757H27.1979L100.819 65.3727H100.839L114.214 65.4105C115.146 65.409 116.04 65.753 116.701 66.3668C117.361 66.9806 117.733 67.814 117.735 68.6838ZM103.083 40.8671C103.083 38.2951 103.9 35.7808 105.43 33.6422C106.961 31.5037 109.136 29.8369 111.682 28.8526C114.227 27.8684 117.028 27.6108 119.73 28.1126C122.432 28.6144 124.914 29.8529 126.862 31.6716C128.811 33.4903 130.137 35.8075 130.675 38.3301C131.212 40.8527 130.936 43.4674 129.882 45.8436C128.828 48.2199 127.042 50.2509 124.752 51.6798C122.461 53.1087 119.768 53.8714 117.013 53.8714C113.319 53.8679 109.778 52.4966 107.167 50.0586C104.555 47.6206 103.086 44.315 103.083 40.8671Z" fill="#24F8F5"/>
<path d="M119.504 49.5646C120.793 49.0589 121.856 48.1532 122.513 47.0005C123.169 45.8478 123.379 44.5189 123.107 43.2383C122.835 41.9577 122.098 40.804 121.02 39.9723C119.942 39.1405 118.59 38.6817 117.192 38.6733C116.919 38.6742 116.652 38.6032 116.421 38.4684C116.19 38.3337 116.004 38.1408 115.886 37.9118C115.767 37.6829 115.72 37.4273 115.75 37.1746C115.78 36.9218 115.886 36.6821 116.056 36.4832C116.226 36.2843 116.453 36.1342 116.71 36.0503C116.967 35.9664 117.244 35.952 117.51 36.0089C117.775 36.0657 118.018 36.1915 118.211 36.3717C118.403 36.5518 118.537 36.7791 118.597 37.0272C118.657 37.3103 118.778 37.5792 118.951 37.818C119.125 38.0568 119.348 38.2607 119.608 38.4176C119.867 38.5744 120.158 38.6811 120.463 38.7313C120.767 38.7815 121.079 38.7741 121.381 38.7097C121.682 38.6452 121.967 38.525 122.217 38.3561C122.468 38.1873 122.68 37.9731 122.841 37.7265C123.001 37.4798 123.107 37.2055 123.152 36.9199C123.197 36.6343 123.181 36.3432 123.103 36.0638C122.889 35.1815 122.45 34.3605 121.823 33.6704C121.197 32.9803 120.401 32.4414 119.504 32.0996V31.0202C119.504 30.4476 119.261 29.8985 118.827 29.4936C118.393 29.0888 117.805 28.8613 117.192 28.8613C116.578 28.8613 115.99 29.0888 115.557 29.4936C115.123 29.8985 114.879 30.4476 114.879 31.0202V32.0996C113.59 32.6053 112.527 33.511 111.871 34.6637C111.214 35.8164 111.004 37.1454 111.276 38.426C111.548 39.7065 112.285 40.8602 113.363 41.692C114.441 42.5237 115.793 42.9826 117.192 42.991C117.465 42.99 117.734 43.0616 117.966 43.1974C118.197 43.3333 118.383 43.5278 118.501 43.7583C118.619 43.9889 118.665 44.246 118.632 44.4997C118.6 44.7534 118.491 44.9934 118.318 45.1916C118.146 45.3898 117.916 45.5382 117.657 45.6195C117.397 45.7007 117.118 45.7115 116.853 45.6506C116.587 45.5897 116.345 45.4596 116.155 45.2754C115.966 45.0912 115.836 44.8605 115.781 44.6101C115.728 44.3265 115.614 44.0558 115.446 43.8139C115.279 43.5721 115.062 43.3638 114.807 43.2016C114.552 43.0393 114.265 42.9262 113.963 42.8691C113.661 42.8119 113.349 42.8117 113.047 42.8686C112.745 42.9255 112.457 43.0383 112.202 43.2003C111.947 43.3623 111.73 43.5703 111.562 43.812C111.395 44.0538 111.281 44.3243 111.227 44.6078C111.173 44.8913 111.18 45.1821 111.249 45.4628C111.447 46.3722 111.883 47.2221 112.516 47.9378C113.149 48.6535 113.96 49.2131 114.879 49.5673V50.6845C114.879 51.2571 115.123 51.8062 115.557 52.2111C115.99 52.6159 116.578 52.8434 117.192 52.8434C117.805 52.8434 118.393 52.6159 118.827 52.2111C119.261 51.8062 119.504 51.2571 119.504 50.6845V49.5646Z" fill="#24F8F5"/>
</svg>
