<svg width="54" height="48" viewBox="0 0 54 48" fill="none" xmlns="http://www.w3.org/2000/svg">
<path d="M1.80064 8.4359e-07C0.806146 8.4359e-07 0 0.80589 0 1.8C0 2.79411 0.806146 3.6 1.80064 3.6H7.54017L13.7299 32.7937C13.9748 33.8927 14.6953 34.8073 15.6055 34.8H45.6162C46.5675 34.8132 47.4424 33.9511 47.4424 33C47.4424 32.049 46.5675 31.1866 45.6162 31.2H17.0686L16.2995 27.6H48.017C48.8232 27.594 49.585 26.9802 49.7614 26.1937L53.9629 8.19374C54.197 7.1491 53.2894 6.00767 52.2185 6H11.7417L10.7663 1.425C10.5959 0.62574 9.82068 -0.000839156 9.00319 8.4359e-07H1.80064ZM12.4919 9.59999H49.949L46.5915 24H15.5492L12.4919 9.59999ZM21.6077 36C18.3141 36 15.6055 38.7076 15.6055 42C15.6055 45.2924 18.3141 48 21.6077 48C24.9012 48 27.6098 45.2924 27.6098 42C27.6098 38.7076 24.9012 36 21.6077 36ZM39.614 36C36.3205 36 33.6119 38.7076 33.6119 42C33.6119 45.2924 36.3205 48 39.614 48C42.9076 48 45.6162 45.2924 45.6162 42C45.6162 38.7076 42.9076 36 39.614 36ZM21.6077 39.6C22.955 39.6 24.0085 40.6532 24.0085 42C24.0085 43.3468 22.955 44.4 21.6077 44.4C20.2605 44.4 19.2068 43.3468 19.2068 42C19.2068 40.6532 20.2605 39.6 21.6077 39.6ZM39.614 39.6C40.9613 39.6 42.0149 40.6532 42.0149 42C42.0149 43.3468 40.9613 44.4 39.614 44.4C38.2669 44.4 37.2132 43.3468 37.2132 42C37.2132 40.6532 38.2669 39.6 39.614 39.6Z" fill="#FF53E1"/>
</svg>
