<svg width="705" height="89" viewBox="0 0 705 89" fill="none" xmlns="http://www.w3.org/2000/svg">
<path d="M4.77 59.78C4.77 71.93 14.85 76.7 25.38 76.7C26.46 76.7 30.15 76.7 30.69 76.7C39.69 74.54 46.08 69.86 46.08 60.32C46.08 52.85 43.38 45.47 42.39 38.54C41.85 34.85 41.85 30.62 41.85 26.93C41.85 24.86 41.85 22.7 42.39 20.54C48.15 21.62 53.46 28.01 56.61 28.01C60.39 28.01 60.93 21.62 60.93 18.47C60.93 18.47 60.93 16.31 60.93 15.86C60.93 15.32 60.39 14.78 59.85 14.24C50.85 13.7 41.85 13.7 32.85 13.7C30.15 13.7 19.08 13.7 16.92 13.7C16.38 13.7 13.23 14.24 12.69 14.24C12.15 14.24 10.08 15.32 10.08 16.31C10.08 16.85 10.08 19.01 10.08 19.01C10.08 22.16 10.62 28.55 14.85 28.55C18.54 28.55 22.23 23.78 24.93 22.16C25.92 21.62 28.08 20.54 28.08 20.54L28.62 21.08C28.62 22.7 28.62 29.54 28.62 31.16C28.62 33.32 29.16 39.62 29.16 40.16C30.15 47.54 32.85 54.47 32.85 61.85C32.85 67.7 29.61 72.47 23.31 72.47C20.16 72.47 14.85 69.86 14.85 65.54C14.85 63.47 19.62 63.47 19.62 59.24C19.62 54.47 16.92 51.86 12.15 51.86C7.38 51.86 4.77 54.47 4.77 59.78ZM68.817 73.19C68.817 73.19 68.907 74.09 69.987 74.27C73.407 74.27 76.287 73.73 79.347 73.73C83.397 73.73 86.907 74.27 91.047 74.27C92.757 74.27 92.757 74.27 92.757 72.47C92.757 70.22 90.417 67.88 89.247 65.63C87.627 62.39 87.357 58.34 87.357 54.47C87.357 52.67 87.447 50.87 87.447 49.25C87.447 43.94 89.787 39.35 89.787 34.04C89.787 32.78 89.787 30.53 87.987 30.53C85.197 30.53 79.347 36.38 76.287 37.55C75.837 37.55 72.237 39.35 71.607 39.35C71.607 39.35 68.817 40.88 68.817 42.5C69.087 44.48 71.877 45.2 72.237 46.28V66.17L71.607 67.25C71.157 68.42 68.817 70.85 68.817 73.19ZM71.157 22.34C71.157 26.48 74.037 27.56 77.547 27.56C81.057 27.56 82.767 25.31 82.767 21.8C82.767 18.2 79.887 16.58 76.917 16.58C73.407 16.58 71.157 18.83 71.157 22.34ZM102.668 71.66C103.298 72.74 103.838 74.63 105.188 74.63C109.238 74.63 113.918 73.37 117.518 73.37C118.058 72.74 118.058 72.11 118.058 71.66C118.058 69.14 115.628 65.63 115.628 62.57C115.628 60.86 117.518 52.94 119.858 52.94C120.398 52.94 120.398 52.94 120.398 52.94L121.028 53.57C124.718 58.97 128.138 65.63 130.478 71.03C130.478 71.66 131.108 71.66 131.738 71.66C133.538 71.66 137.048 61.94 138.218 60.23C139.478 58.43 142.358 54.83 143.618 53.57C143.618 53.57 143.618 53.57 144.158 53.57C146.408 53.57 147.758 61.4 147.758 63.11C147.758 66.17 146.408 68.6 146.408 71.66C146.408 73.37 147.218 74.63 149.018 74.63H150.098C150.098 74.63 152.438 74 153.158 73.91C155.768 73.46 160.088 74.72 162.518 74C163.148 73.37 163.148 71.66 163.148 71.03C163.148 66.89 161.978 63.11 160.268 58.97C158.378 54.83 145.418 31.97 144.878 31.97C144.878 31.97 135.428 47.54 131.738 50.69C127.508 47.54 121.567 31.25 120.398 31.25C118.778 31.25 117.518 36.74 116.978 37.37C116.168 38.72 114.728 41.51 113.828 42.5C110.858 47.54 106.808 51.23 105.188 56.72C103.298 60.86 102.218 64.37 102.218 68.51C102.218 69.14 102.668 71.03 102.668 71.66ZM172.189 71.66C172.819 72.74 173.359 74.63 174.709 74.63C178.759 74.63 183.439 73.37 187.039 73.37C187.579 72.74 187.579 72.11 187.579 71.66C187.579 69.14 185.149 65.63 185.149 62.57C185.149 60.86 187.039 52.94 189.379 52.94C189.919 52.94 189.919 52.94 189.919 52.94L190.549 53.57C194.239 58.97 197.659 65.63 199.999 71.03C199.999 71.66 200.629 71.66 201.259 71.66C203.059 71.66 206.569 61.94 207.739 60.23C208.999 58.43 211.879 54.83 213.139 53.57C213.139 53.57 213.139 53.57 213.679 53.57C215.929 53.57 217.279 61.4 217.279 63.11C217.279 66.17 215.929 68.6 215.929 71.66C215.929 73.37 216.739 74.63 218.539 74.63H219.619C219.619 74.63 221.959 74 222.679 73.91C225.289 73.46 229.609 74.72 232.039 74C232.669 73.37 232.669 71.66 232.669 71.03C232.669 66.89 231.499 63.11 229.789 58.97C227.899 54.83 214.939 31.97 214.399 31.97C214.399 31.97 204.949 47.54 201.259 50.69C197.029 47.54 191.089 31.25 189.919 31.25C188.299 31.25 187.039 36.74 186.499 37.37C185.689 38.72 184.249 41.51 183.349 42.5C180.379 47.54 176.329 51.23 174.709 56.72C172.819 60.86 171.739 64.37 171.739 68.51C171.739 69.14 172.189 71.03 172.189 71.66ZM241.17 73.19C241.17 73.19 241.26 74.09 242.34 74.27C245.76 74.27 248.64 73.73 251.7 73.73C255.75 73.73 259.26 74.27 263.4 74.27C265.11 74.27 265.11 74.27 265.11 72.47C265.11 70.22 262.77 67.88 261.6 65.63C259.98 62.39 259.71 58.34 259.71 54.47C259.71 52.67 259.8 50.87 259.8 49.25C259.8 43.94 262.14 39.35 262.14 34.04C262.14 32.78 262.14 30.53 260.34 30.53C257.55 30.53 251.7 36.38 248.64 37.55C248.19 37.55 244.59 39.35 243.96 39.35C243.96 39.35 241.17 40.88 241.17 42.5C241.44 44.48 244.23 45.2 244.59 46.28V66.17L243.96 67.25C243.51 68.42 241.17 70.85 241.17 73.19ZM243.51 22.34C243.51 26.48 246.39 27.56 249.9 27.56C253.41 27.56 255.12 25.31 255.12 21.8C255.12 18.2 252.24 16.58 249.27 16.58C245.76 16.58 243.51 18.83 243.51 22.34ZM303.975 72.02C303.975 72.56 303.975 73.64 303.975 73.64L306.585 74.18H325.665L328.815 73.64C328.815 73.64 329.355 73.1 329.355 72.56C329.355 72.56 329.355 72.56 329.355 72.02C329.355 69.41 325.125 66.26 324.045 64.1C321.435 58.34 321.435 52.94 321.435 46.55C325.665 46.73 331.875 47 337.365 47C341.415 47 345.105 46.82 347.355 46.55V62.48C347.355 66.71 341.055 68.24 341.055 72.47C341.055 73.01 341.055 74.09 342.045 74.09H365.895L367.515 73.55C367.515 73.55 367.515 73.01 367.515 72.47C367.515 67.79 362.745 65.63 361.665 60.86C360.225 53.12 359.955 44.39 359.955 35.93C359.955 31.7 360.045 27.56 360.045 23.69V23.15C362.745 20.99 365.355 18.38 365.355 14.69C365.355 13.07 365.355 13.07 363.285 13.07C357.435 13.07 351.045 14.69 345.285 15.14C344.205 15.68 343.665 16.76 343.665 17.84C343.665 19.91 346.815 22.61 347.895 23.15V24.14V25.22C347.895 27.38 348.075 36.47 348.075 38.54C344.655 37.91 339.705 37.55 334.485 37.55C330.255 37.55 325.755 37.82 321.975 38.54C320.895 38.54 321.435 36.92 321.435 36.47V34.85C321.435 33.23 321.975 24.23 321.975 22.7C323.055 21.62 325.665 19.46 325.665 17.39C325.665 13.16 312.435 14.24 309.285 13.7H308.205C306.585 13.7 302.895 14.69 302.895 16.85C302.895 20.54 308.745 21.62 308.745 25.31V60.95C308.745 65.72 303.975 67.79 303.975 72.02ZM376.511 56.99C376.511 69.14 386.681 75.62 398.381 75.62C407.741 75.62 424.301 71.57 424.301 59.78C422.051 59.78 420.251 62.12 418.541 63.92C415.481 66.71 408.641 69.14 403.331 69.14C399.191 69.14 395.861 67.97 394.241 66.26C394.241 66.26 394.511 66.26 394.511 65.72C399.641 62.21 405.581 59.06 411.161 55.73C412.421 55.19 417.011 52.4 418.271 51.68C420.521 50.6 425.561 46.82 425.561 44.39C425.561 36.29 409.991 33.05 404.141 33.05C389.651 33.05 376.511 39.44 376.511 56.99ZM388.751 53.93C388.751 46.37 392.261 37.1 400.991 37.1C403.331 37.1 411.431 39.44 411.431 43.04C411.431 43.49 408.641 47.09 408.011 47.63C402.791 52.94 397.481 58.61 392.261 63.92C389.831 62.21 388.751 56.36 388.751 53.93ZM465.917 65.81C465.917 73.37 468.347 75.17 475.367 75.17C476.447 75.17 479.417 75.17 479.417 75.17C480.587 75.17 482.297 74.54 482.297 74.54V72.74C480.587 71.03 478.247 69.23 478.247 66.44C478.247 61.13 479.417 55.46 479.417 50.33C479.417 39.71 475.367 33.32 463.037 33.32C456.647 33.32 451.967 37.91 447.917 42.05L447.647 41.87V32.6C447.647 31.34 445.937 31.34 445.307 31.34C443.057 31.34 439.997 33.68 437.747 34.85C437.207 35.48 433.157 36.65 431.897 36.65C430.637 36.65 431.357 38.36 431.357 38.9C431.357 42.5 435.407 40.7 435.947 43.58C436.577 48.26 436.577 51.77 436.577 56.54C436.577 57.62 436.577 62.39 436.577 63.38C435.947 66.98 433.157 69.23 433.157 71.66C433.157 72.74 433.697 73.37 434.147 73.91C436.577 73.91 446.477 74.54 448.727 74.54H449.357C451.157 74.54 451.787 72.74 451.787 71.03C451.787 68.69 447.647 65.81 447.647 61.67V48.26C447.647 48.26 449.987 45.92 450.527 45.2C453.587 42.41 454.937 40.25 459.527 40.25C462.587 40.25 464.297 40.79 465.917 43.76C467.087 45.92 467.087 47.9 467.087 50.33C467.087 55.46 465.917 60.59 465.917 65.81ZM527.36 68.78C528.62 68.78 528.62 74.09 532.13 74.09H543.2C545.54 74.09 546.62 71.66 546.62 69.95C546.62 66.98 541.4 66.98 540.86 65.27L539.69 59.42C539.51 58.61 539.06 32.51 539.06 29.18C539.06 28.73 539.06 25.67 539.06 25.13C540.32 25.13 545 24.59 545 22.88C545 19.82 533.21 12.26 530.42 12.26C530.42 12.26 529.88 12.08 529.25 12.08C528.62 12.08 527.99 12.26 527.99 12.98C527.99 13.97 527.54 17.3 527.36 20C527.18 23.06 527.09 26.12 527.09 29C527.09 34.76 527.36 39.62 527.36 41.87H526.82C521.51 37.28 515.75 34.94 508.73 34.94C499.46 34.94 488.39 41.78 488.39 54.11C488.39 57.08 489.2 60.77 490.73 63.47C494.15 71.12 502.34 73.46 509.9 73.46C516.29 73.46 521.06 71.12 526.82 68.78C526.82 68.78 526.82 68.78 527.36 68.78ZM500.63 55.37C500.63 48.35 505.85 40.16 513.41 40.16C519.53 40.16 525.38 44.48 527.36 46.01V64.19C527.36 66.53 517.46 68.24 516.29 68.24C508.1 68.24 500.63 63.47 500.63 55.37ZM556.249 71.84C556.249 71.84 556.249 72.38 556.339 73.28C556.789 73.64 558.049 74.18 558.049 74.18C559.489 74 561.289 74 563.269 74C567.139 74 571.279 74.18 572.449 74.18C573.529 74.18 578.389 74 579.019 73.64C579.019 70.76 577.219 69.95 575.599 67.61C573.169 64.1 571.999 59.42 571.999 54.74C571.999 54.11 572.539 50.69 572.539 50.06C576.049 45.47 581.269 40.16 588.379 40.16C588.379 40.16 589.549 40.16 590.179 40.16C590.629 40.16 590.629 49.52 598.819 49.52C602.869 49.52 605.389 44.84 605.389 40.7C605.389 34.31 597.019 32.51 591.889 32.51C587.749 32.51 583.699 33.77 580.189 36.11C578.119 37.64 574.429 41.06 572.539 41.87L572.719 28.64C572.719 28.64 572.719 27.2 571.999 26.75C571.369 26.75 570.199 27.47 570.199 27.47C569.479 28.46 565.519 31.16 563.179 32.51C560.839 34.31 553.279 37.1 553.279 40.7C553.279 45.47 560.389 42.41 560.389 46.01V61.67C560.389 65.9 556.249 68.33 556.249 71.84ZM612.245 73.19C612.245 73.19 612.335 74.09 613.415 74.27C616.835 74.27 619.715 73.73 622.775 73.73C626.825 73.73 630.335 74.27 634.475 74.27C636.185 74.27 636.185 74.27 636.185 72.47C636.185 70.22 633.845 67.88 632.675 65.63C631.055 62.39 630.785 58.34 630.785 54.47C630.785 52.67 630.875 50.87 630.875 49.25C630.875 43.94 633.215 39.35 633.215 34.04C633.215 32.78 633.215 30.53 631.415 30.53C628.625 30.53 622.775 36.38 619.715 37.55C619.265 37.55 615.665 39.35 615.035 39.35C615.035 39.35 612.245 40.88 612.245 42.5C612.515 44.48 615.305 45.2 615.665 46.28V66.17L615.035 67.25C614.585 68.42 612.245 70.85 612.245 73.19ZM614.585 22.34C614.585 26.48 617.465 27.56 620.975 27.56C624.485 27.56 626.195 25.31 626.195 21.8C626.195 18.2 623.315 16.58 620.345 16.58C616.835 16.58 614.585 18.83 614.585 22.34ZM661.035 73.91C662.205 73.91 662.745 72.74 662.745 71.75V71.12L661.575 68.87C661.035 65 670.755 57.44 674.265 57.44C677.775 57.44 682.815 64.91 682.815 68.24C682.815 69.41 681.555 69.86 681.555 71.48C681.555 72.65 681.555 73.73 682.815 73.73C683.355 73.73 683.355 73.73 683.355 73.73C685.065 73.73 693.165 73.28 694.875 73.28C695.505 73.28 695.505 72.11 695.505 71.48V70.94C693.165 67.79 692.085 65.45 689.115 62.75C687.945 61.13 679.575 55.28 679.575 55.28C679.575 54.74 679.575 54.74 679.575 54.74L680.115 54.02C685.335 50.87 695.055 47 695.055 39.8C695.055 34.31 692.805 34.31 688.215 34.31C684.795 34.31 682.995 34.31 678.945 34.85C677.775 35.48 677.775 36.02 677.775 36.47C677.775 37.73 678.945 38.18 678.945 39.8C678.945 43.67 671.385 48.71 668.055 48.71C663.285 48.71 656.985 44.84 656.985 39.8C656.985 38.18 658.695 38.18 658.695 36.47C658.695 33.86 653.475 34.31 652.305 34.31C651.675 34.31 648.885 34.31 648.165 34.31C646.455 35.48 645.915 36.47 645.915 38.18V38.72C648.165 47 653.475 48.08 661.575 50.87C662.205 50.87 662.745 51.32 663.285 51.86C658.695 54.74 651.225 60.95 648.345 65.36C647.715 66.89 646.545 69.32 646.545 71.3C646.545 72.47 646.995 73.46 648.165 73.91C649.155 74.09 650.955 74.09 652.845 74.09C656.625 74.09 661.035 73.91 661.035 73.91Z" fill="#FF53E1"/>
<path d="M7.77 57.78C7.77 69.93 17.85 74.7 28.38 74.7C29.46 74.7 33.15 74.7 33.69 74.7C42.69 72.54 49.08 67.86 49.08 58.32C49.08 50.85 46.38 43.47 45.39 36.54C44.85 32.85 44.85 28.62 44.85 24.93C44.85 22.86 44.85 20.7 45.39 18.54C51.15 19.62 56.46 26.01 59.61 26.01C63.39 26.01 63.93 19.62 63.93 16.47C63.93 16.47 63.93 14.31 63.93 13.86C63.93 13.32 63.39 12.78 62.85 12.24C53.85 11.7 44.85 11.7 35.85 11.7C33.15 11.7 22.08 11.7 19.92 11.7C19.38 11.7 16.23 12.24 15.69 12.24C15.15 12.24 13.08 13.32 13.08 14.31C13.08 14.85 13.08 17.01 13.08 17.01C13.08 20.16 13.62 26.55 17.85 26.55C21.54 26.55 25.23 21.78 27.93 20.16C28.92 19.62 31.08 18.54 31.08 18.54L31.62 19.08C31.62 20.7 31.62 27.54 31.62 29.16C31.62 31.32 32.16 37.62 32.16 38.16C33.15 45.54 35.85 52.47 35.85 59.85C35.85 65.7 32.61 70.47 26.31 70.47C23.16 70.47 17.85 67.86 17.85 63.54C17.85 61.47 22.62 61.47 22.62 57.24C22.62 52.47 19.92 49.86 15.15 49.86C10.38 49.86 7.77 52.47 7.77 57.78ZM71.817 71.19C71.817 71.19 71.907 72.09 72.987 72.27C76.407 72.27 79.287 71.73 82.347 71.73C86.397 71.73 89.907 72.27 94.047 72.27C95.757 72.27 95.757 72.27 95.757 70.47C95.757 68.22 93.417 65.88 92.247 63.63C90.627 60.39 90.357 56.34 90.357 52.47C90.357 50.67 90.447 48.87 90.447 47.25C90.447 41.94 92.787 37.35 92.787 32.04C92.787 30.78 92.787 28.53 90.987 28.53C88.197 28.53 82.347 34.38 79.287 35.55C78.837 35.55 75.237 37.35 74.607 37.35C74.607 37.35 71.817 38.88 71.817 40.5C72.087 42.48 74.877 43.2 75.237 44.28V64.17L74.607 65.25C74.157 66.42 71.817 68.85 71.817 71.19ZM74.157 20.34C74.157 24.48 77.037 25.56 80.547 25.56C84.057 25.56 85.767 23.31 85.767 19.8C85.767 16.2 82.887 14.58 79.917 14.58C76.407 14.58 74.157 16.83 74.157 20.34ZM105.668 69.66C106.298 70.74 106.838 72.63 108.188 72.63C112.238 72.63 116.918 71.37 120.518 71.37C121.058 70.74 121.058 70.11 121.058 69.66C121.058 67.14 118.628 63.63 118.628 60.57C118.628 58.86 120.518 50.94 122.858 50.94C123.398 50.94 123.398 50.94 123.398 50.94L124.028 51.57C127.718 56.97 131.138 63.63 133.478 69.03C133.478 69.66 134.108 69.66 134.738 69.66C136.538 69.66 140.048 59.94 141.218 58.23C142.478 56.43 145.358 52.83 146.618 51.57C146.618 51.57 146.618 51.57 147.158 51.57C149.408 51.57 150.758 59.4 150.758 61.11C150.758 64.17 149.408 66.6 149.408 69.66C149.408 71.37 150.218 72.63 152.018 72.63H153.098C153.098 72.63 155.438 72 156.158 71.91C158.768 71.46 163.088 72.72 165.518 72C166.148 71.37 166.148 69.66 166.148 69.03C166.148 64.89 164.978 61.11 163.268 56.97C161.378 52.83 148.418 29.97 147.878 29.97C147.878 29.97 138.428 45.54 134.738 48.69C130.508 45.54 124.567 29.25 123.398 29.25C121.778 29.25 120.518 34.74 119.978 35.37C119.168 36.72 117.728 39.51 116.828 40.5C113.858 45.54 109.808 49.23 108.188 54.72C106.298 58.86 105.218 62.37 105.218 66.51C105.218 67.14 105.668 69.03 105.668 69.66ZM175.189 69.66C175.819 70.74 176.359 72.63 177.709 72.63C181.759 72.63 186.439 71.37 190.039 71.37C190.579 70.74 190.579 70.11 190.579 69.66C190.579 67.14 188.149 63.63 188.149 60.57C188.149 58.86 190.039 50.94 192.379 50.94C192.919 50.94 192.919 50.94 192.919 50.94L193.549 51.57C197.239 56.97 200.659 63.63 202.999 69.03C202.999 69.66 203.629 69.66 204.259 69.66C206.059 69.66 209.569 59.94 210.739 58.23C211.999 56.43 214.879 52.83 216.139 51.57C216.139 51.57 216.139 51.57 216.679 51.57C218.929 51.57 220.279 59.4 220.279 61.11C220.279 64.17 218.929 66.6 218.929 69.66C218.929 71.37 219.739 72.63 221.539 72.63H222.619C222.619 72.63 224.959 72 225.679 71.91C228.289 71.46 232.609 72.72 235.039 72C235.669 71.37 235.669 69.66 235.669 69.03C235.669 64.89 234.499 61.11 232.789 56.97C230.899 52.83 217.939 29.97 217.399 29.97C217.399 29.97 207.949 45.54 204.259 48.69C200.029 45.54 194.089 29.25 192.919 29.25C191.299 29.25 190.039 34.74 189.499 35.37C188.689 36.72 187.249 39.51 186.349 40.5C183.379 45.54 179.329 49.23 177.709 54.72C175.819 58.86 174.739 62.37 174.739 66.51C174.739 67.14 175.189 69.03 175.189 69.66ZM244.17 71.19C244.17 71.19 244.26 72.09 245.34 72.27C248.76 72.27 251.64 71.73 254.7 71.73C258.75 71.73 262.26 72.27 266.4 72.27C268.11 72.27 268.11 72.27 268.11 70.47C268.11 68.22 265.77 65.88 264.6 63.63C262.98 60.39 262.71 56.34 262.71 52.47C262.71 50.67 262.8 48.87 262.8 47.25C262.8 41.94 265.14 37.35 265.14 32.04C265.14 30.78 265.14 28.53 263.34 28.53C260.55 28.53 254.7 34.38 251.64 35.55C251.19 35.55 247.59 37.35 246.96 37.35C246.96 37.35 244.17 38.88 244.17 40.5C244.44 42.48 247.23 43.2 247.59 44.28V64.17L246.96 65.25C246.51 66.42 244.17 68.85 244.17 71.19ZM246.51 20.34C246.51 24.48 249.39 25.56 252.9 25.56C256.41 25.56 258.12 23.31 258.12 19.8C258.12 16.2 255.24 14.58 252.27 14.58C248.76 14.58 246.51 16.83 246.51 20.34ZM306.975 70.02C306.975 70.56 306.975 71.64 306.975 71.64L309.585 72.18H328.665L331.815 71.64C331.815 71.64 332.355 71.1 332.355 70.56C332.355 70.56 332.355 70.56 332.355 70.02C332.355 67.41 328.125 64.26 327.045 62.1C324.435 56.34 324.435 50.94 324.435 44.55C328.665 44.73 334.875 45 340.365 45C344.415 45 348.105 44.82 350.355 44.55V60.48C350.355 64.71 344.055 66.24 344.055 70.47C344.055 71.01 344.055 72.09 345.045 72.09H368.895L370.515 71.55C370.515 71.55 370.515 71.01 370.515 70.47C370.515 65.79 365.745 63.63 364.665 58.86C363.225 51.12 362.955 42.39 362.955 33.93C362.955 29.7 363.045 25.56 363.045 21.69V21.15C365.745 18.99 368.355 16.38 368.355 12.69C368.355 11.07 368.355 11.07 366.285 11.07C360.435 11.07 354.045 12.69 348.285 13.14C347.205 13.68 346.665 14.76 346.665 15.84C346.665 17.91 349.815 20.61 350.895 21.15V22.14V23.22C350.895 25.38 351.075 34.47 351.075 36.54C347.655 35.91 342.705 35.55 337.485 35.55C333.255 35.55 328.755 35.82 324.975 36.54C323.895 36.54 324.435 34.92 324.435 34.47V32.85C324.435 31.23 324.975 22.23 324.975 20.7C326.055 19.62 328.665 17.46 328.665 15.39C328.665 11.16 315.435 12.24 312.285 11.7H311.205C309.585 11.7 305.895 12.69 305.895 14.85C305.895 18.54 311.745 19.62 311.745 23.31V58.95C311.745 63.72 306.975 65.79 306.975 70.02ZM379.511 54.99C379.511 67.14 389.681 73.62 401.381 73.62C410.741 73.62 427.301 69.57 427.301 57.78C425.051 57.78 423.251 60.12 421.541 61.92C418.481 64.71 411.641 67.14 406.331 67.14C402.191 67.14 398.861 65.97 397.241 64.26C397.241 64.26 397.511 64.26 397.511 63.72C402.641 60.21 408.581 57.06 414.161 53.73C415.421 53.19 420.011 50.4 421.271 49.68C423.521 48.6 428.561 44.82 428.561 42.39C428.561 34.29 412.991 31.05 407.141 31.05C392.651 31.05 379.511 37.44 379.511 54.99ZM391.751 51.93C391.751 44.37 395.261 35.1 403.991 35.1C406.331 35.1 414.431 37.44 414.431 41.04C414.431 41.49 411.641 45.09 411.011 45.63C405.791 50.94 400.481 56.61 395.261 61.92C392.831 60.21 391.751 54.36 391.751 51.93ZM468.917 63.81C468.917 71.37 471.347 73.17 478.367 73.17C479.447 73.17 482.417 73.17 482.417 73.17C483.587 73.17 485.297 72.54 485.297 72.54V70.74C483.587 69.03 481.247 67.23 481.247 64.44C481.247 59.13 482.417 53.46 482.417 48.33C482.417 37.71 478.367 31.32 466.037 31.32C459.647 31.32 454.967 35.91 450.917 40.05L450.647 39.87V30.6C450.647 29.34 448.937 29.34 448.307 29.34C446.057 29.34 442.997 31.68 440.747 32.85C440.207 33.48 436.157 34.65 434.897 34.65C433.637 34.65 434.357 36.36 434.357 36.9C434.357 40.5 438.407 38.7 438.947 41.58C439.577 46.26 439.577 49.77 439.577 54.54C439.577 55.62 439.577 60.39 439.577 61.38C438.947 64.98 436.157 67.23 436.157 69.66C436.157 70.74 436.697 71.37 437.147 71.91C439.577 71.91 449.477 72.54 451.727 72.54H452.357C454.157 72.54 454.787 70.74 454.787 69.03C454.787 66.69 450.647 63.81 450.647 59.67V46.26C450.647 46.26 452.987 43.92 453.527 43.2C456.587 40.41 457.937 38.25 462.527 38.25C465.587 38.25 467.297 38.79 468.917 41.76C470.087 43.92 470.087 45.9 470.087 48.33C470.087 53.46 468.917 58.59 468.917 63.81ZM530.36 66.78C531.62 66.78 531.62 72.09 535.13 72.09H546.2C548.54 72.09 549.62 69.66 549.62 67.95C549.62 64.98 544.4 64.98 543.86 63.27L542.69 57.42C542.51 56.61 542.06 30.51 542.06 27.18C542.06 26.73 542.06 23.67 542.06 23.13C543.32 23.13 548 22.59 548 20.88C548 17.82 536.21 10.26 533.42 10.26C533.42 10.26 532.88 10.08 532.25 10.08C531.62 10.08 530.99 10.26 530.99 10.98C530.99 11.97 530.54 15.3 530.36 18C530.18 21.06 530.09 24.12 530.09 27C530.09 32.76 530.36 37.62 530.36 39.87H529.82C524.51 35.28 518.75 32.94 511.73 32.94C502.46 32.94 491.39 39.78 491.39 52.11C491.39 55.08 492.2 58.77 493.73 61.47C497.15 69.12 505.34 71.46 512.9 71.46C519.29 71.46 524.06 69.12 529.82 66.78C529.82 66.78 529.82 66.78 530.36 66.78ZM503.63 53.37C503.63 46.35 508.85 38.16 516.41 38.16C522.53 38.16 528.38 42.48 530.36 44.01V62.19C530.36 64.53 520.46 66.24 519.29 66.24C511.1 66.24 503.63 61.47 503.63 53.37ZM559.249 69.84C559.249 69.84 559.249 70.38 559.339 71.28C559.789 71.64 561.049 72.18 561.049 72.18C562.489 72 564.289 72 566.269 72C570.139 72 574.279 72.18 575.449 72.18C576.529 72.18 581.389 72 582.019 71.64C582.019 68.76 580.219 67.95 578.599 65.61C576.169 62.1 574.999 57.42 574.999 52.74C574.999 52.11 575.539 48.69 575.539 48.06C579.049 43.47 584.269 38.16 591.379 38.16C591.379 38.16 592.549 38.16 593.179 38.16C593.629 38.16 593.629 47.52 601.819 47.52C605.869 47.52 608.389 42.84 608.389 38.7C608.389 32.31 600.019 30.51 594.889 30.51C590.749 30.51 586.699 31.77 583.189 34.11C581.119 35.64 577.429 39.06 575.539 39.87L575.719 26.64C575.719 26.64 575.719 25.2 574.999 24.75C574.369 24.75 573.199 25.47 573.199 25.47C572.479 26.46 568.519 29.16 566.179 30.51C563.839 32.31 556.279 35.1 556.279 38.7C556.279 43.47 563.389 40.41 563.389 44.01V59.67C563.389 63.9 559.249 66.33 559.249 69.84ZM615.245 71.19C615.245 71.19 615.335 72.09 616.415 72.27C619.835 72.27 622.715 71.73 625.775 71.73C629.825 71.73 633.335 72.27 637.475 72.27C639.185 72.27 639.185 72.27 639.185 70.47C639.185 68.22 636.845 65.88 635.675 63.63C634.055 60.39 633.785 56.34 633.785 52.47C633.785 50.67 633.875 48.87 633.875 47.25C633.875 41.94 636.215 37.35 636.215 32.04C636.215 30.78 636.215 28.53 634.415 28.53C631.625 28.53 625.775 34.38 622.715 35.55C622.265 35.55 618.665 37.35 618.035 37.35C618.035 37.35 615.245 38.88 615.245 40.5C615.515 42.48 618.305 43.2 618.665 44.28V64.17L618.035 65.25C617.585 66.42 615.245 68.85 615.245 71.19ZM617.585 20.34C617.585 24.48 620.465 25.56 623.975 25.56C627.485 25.56 629.195 23.31 629.195 19.8C629.195 16.2 626.315 14.58 623.345 14.58C619.835 14.58 617.585 16.83 617.585 20.34ZM664.035 71.91C665.205 71.91 665.745 70.74 665.745 69.75V69.12L664.575 66.87C664.035 63 673.755 55.44 677.265 55.44C680.775 55.44 685.815 62.91 685.815 66.24C685.815 67.41 684.555 67.86 684.555 69.48C684.555 70.65 684.555 71.73 685.815 71.73C686.355 71.73 686.355 71.73 686.355 71.73C688.065 71.73 696.165 71.28 697.875 71.28C698.505 71.28 698.505 70.11 698.505 69.48V68.94C696.165 65.79 695.085 63.45 692.115 60.75C690.945 59.13 682.575 53.28 682.575 53.28C682.575 52.74 682.575 52.74 682.575 52.74L683.115 52.02C688.335 48.87 698.055 45 698.055 37.8C698.055 32.31 695.805 32.31 691.215 32.31C687.795 32.31 685.995 32.31 681.945 32.85C680.775 33.48 680.775 34.02 680.775 34.47C680.775 35.73 681.945 36.18 681.945 37.8C681.945 41.67 674.385 46.71 671.055 46.71C666.285 46.71 659.985 42.84 659.985 37.8C659.985 36.18 661.695 36.18 661.695 34.47C661.695 31.86 656.475 32.31 655.305 32.31C654.675 32.31 651.885 32.31 651.165 32.31C649.455 33.48 648.915 34.47 648.915 36.18V36.72C651.165 45 656.475 46.08 664.575 48.87C665.205 48.87 665.745 49.32 666.285 49.86C661.695 52.74 654.225 58.95 651.345 63.36C650.715 64.89 649.545 67.32 649.545 69.3C649.545 70.47 649.995 71.46 651.165 71.91C652.155 72.09 653.955 72.09 655.845 72.09C659.625 72.09 664.035 71.91 664.035 71.91Z" fill="#568EFD"/>
</svg>
